<svg width="210" height="34" viewBox="0 0 210 34" fill="none" xmlns="http://www.w3.org/2000/svg">
<path d="M0.46875 2.28516C1.24219 2.37891 1.94531 2.44922 2.57812 2.49609C3.1875 2.54297 3.71484 2.58984 4.16016 2.63672C4.67578 2.68359 5.13281 2.71875 5.53125 2.74219C5.95312 2.74219 6.49219 2.73047 7.14844 2.70703C7.71094 2.68359 8.42578 2.64844 9.29297 2.60156C10.1602 2.55469 11.2266 2.47266 12.4922 2.35547C11.8828 2.70703 11.3789 3.05859 10.9805 3.41016C10.6055 3.76172 10.3125 4.07812 10.1016 4.35938C9.84375 4.6875 9.65625 5.01562 9.53906 5.34375C9.46875 5.78906 9.49219 6.65625 9.60938 7.94531C9.65625 8.48438 9.72656 9.15234 9.82031 9.94922C9.9375 10.7227 10.0781 11.6484 10.2422 12.7266C10.4297 13.7812 10.6523 15 10.9102 16.3828C11.1914 17.7656 11.5078 19.3359 11.8594 21.0938C12.3281 19.7578 12.7148 18.5742 13.0195 17.543C13.3242 16.4883 13.582 15.5859 13.793 14.8359C14.0273 13.9922 14.2266 13.2422 14.3906 12.5859C14.5547 11.9062 14.7539 11.0273 14.9883 9.94922C15.1758 9.03516 15.4219 7.85156 15.7266 6.39844C16.0312 4.94531 16.4062 3.15234 16.8516 1.01953L18.1172 1.19531C18.2344 2.85938 18.3516 4.32422 18.4688 5.58984C18.6094 6.85547 18.7266 7.93359 18.8203 8.82422C18.9141 9.85547 19.0078 10.7461 19.1016 11.4961C19.1953 12.1758 19.3359 12.9609 19.5234 13.8516C19.6875 14.6016 19.8984 15.5273 20.1562 16.6289C20.4141 17.707 20.7539 18.9258 21.1758 20.2852C21.5977 18.6211 21.9727 17.1328 22.3008 15.8203C22.6523 14.5078 22.9453 13.3477 23.1797 12.3398C23.4375 11.332 23.6484 10.4648 23.8125 9.73828C24 9.01172 24.1523 8.40234 24.2695 7.91016C24.5273 6.73828 24.6797 5.95313 24.7266 5.55469C24.7031 5.10938 24.5977 4.67578 24.4102 4.25391C24.2461 3.87891 23.9883 3.46875 23.6367 3.02344C23.2852 2.57813 22.7695 2.14453 22.0898 1.72266C23.5195 1.76953 24.6797 1.80469 25.5703 1.82812C26.4844 1.82812 27.2109 1.82812 27.75 1.82812H29.1562H30.4219C30.8906 1.82812 31.5 1.82812 32.25 1.82812C33.0234 1.80469 34.0078 1.76953 35.2031 1.72266C34.1719 2.26172 33.3398 2.75391 32.707 3.19922C32.0742 3.64453 31.582 4.01953 31.2305 4.32422C30.8086 4.69922 30.5039 5.01562 30.3164 5.27344C30.1289 5.74219 29.8242 6.79688 29.4023 8.4375C29.2148 9.14062 29.0039 10.0195 28.7695 11.0742C28.5352 12.1055 28.2539 13.3477 27.9258 14.8008C27.6211 16.2539 27.2695 17.9531 26.8711 19.8984C26.4727 21.8203 26.0273 24.0234 25.5352 26.5078L19.4531 25.875L16.8516 14.9414C16.4531 16.9336 16.1367 18.5508 15.9023 19.793C15.668 21.0117 15.4922 21.9609 15.375 22.6406C15.2344 23.4609 15.1523 24.0586 15.1289 24.4336C15.1055 24.7617 15.082 25.0781 15.0586 25.3828C15.0352 25.6406 15 25.9219 14.9531 26.2266C14.9297 26.5312 14.8945 26.8125 14.8477 27.0703H8.625C8.01562 24.3984 7.46484 22.043 6.97266 20.0039C6.50391 17.9414 6.08203 16.1367 5.70703 14.5898C5.33203 13.043 5.00391 11.7305 4.72266 10.6523C4.46484 9.57422 4.23047 8.67188 4.01953 7.94531C3.55078 6.25781 3.21094 5.21484 3 4.81641C2.83594 4.62891 2.625 4.40625 2.36719 4.14844C2.15625 3.9375 1.89844 3.67969 1.59375 3.375C1.26562 3.04687 0.890625 2.68359 0.46875 2.28516ZM32.9531 12.7617C33.0703 12.6211 33.1406 12.3633 33.1641 11.9883C33.2109 11.5898 33.3047 11.1445 33.4453 10.6523C33.6094 10.1602 33.8789 9.64453 34.2539 9.10547C34.6289 8.56641 35.2383 8.0625 36.082 7.59375C36.9023 7.125 37.6992 6.84375 38.4727 6.75C39.2461 6.65625 39.9844 6.69141 40.6875 6.85547C41.3906 7.01953 42.0469 7.27734 42.6562 7.62891C43.2891 7.98047 43.8633 8.36719 44.3789 8.78906C44.7305 9.07031 45.0117 9.48047 45.2227 10.0195C45.4336 10.5352 45.5977 11.1211 45.7148 11.7773C45.832 12.4336 45.9141 13.125 45.9609 13.8516C46.0312 14.5547 46.0781 15.2461 46.1016 15.9258C46.125 16.582 46.1367 17.1914 46.1367 17.7539C46.1602 18.293 46.207 18.7383 46.2773 19.0898C46.3711 19.6055 46.5352 20.0508 46.7695 20.4258C47.0039 20.7773 47.2617 21.082 47.543 21.3398C47.8242 21.5742 48.1055 21.7617 48.3867 21.9023C48.668 22.043 48.9141 22.1484 49.125 22.2188C49.2656 22.2891 49.3945 22.3359 49.5117 22.3594C49.7461 22.4531 49.9102 22.4531 50.0039 22.3594C49.8633 22.6875 49.7344 22.9688 49.6172 23.2031C49.5 23.4375 49.4062 23.6367 49.3359 23.8008C49.2422 23.9883 49.1602 24.1406 49.0898 24.2578C49.0195 24.3984 48.9375 24.5273 48.8438 24.6445C48.7734 24.7617 48.6797 24.8906 48.5625 25.0312C48.4453 25.1719 48.3281 25.3242 48.2109 25.4883C47.9062 25.3711 47.6133 25.2305 47.332 25.0664C47.0742 24.9023 46.8398 24.75 46.6289 24.6094C46.3711 24.4453 46.1367 24.2812 45.9258 24.1172C45.7148 23.9531 45.5156 23.7656 45.3281 23.5547C45.1641 23.3672 44.9883 23.168 44.8008 22.957C44.6367 22.7461 44.4961 22.5117 44.3789 22.2539C44.2383 22.5586 43.8984 22.9922 43.3594 23.5547C42.8438 24.1172 42.1641 24.6328 41.3203 25.1016C40.4766 25.5469 39.4922 25.8633 38.3672 26.0508C37.2656 26.2383 36.0469 26.1094 34.7109 25.6641C34.125 25.4766 33.5742 25.207 33.0586 24.8555C32.543 24.4805 32.0977 24.0352 31.7227 23.5195C31.3711 23.0039 31.1133 22.418 30.9492 21.7617C30.8086 21.082 30.8203 20.332 30.9844 19.5117C31.1484 18.6914 31.4414 18 31.8633 17.4375C32.2852 16.875 32.7891 16.418 33.375 16.0664C33.9609 15.7148 34.6172 15.4453 35.3438 15.2578C36.0703 15.0703 36.8203 14.9414 37.5938 14.8711C38.2031 14.8477 38.8125 14.8828 39.4219 14.9766C39.9375 15.0703 40.4766 15.2461 41.0391 15.5039C41.6016 15.7383 42.082 16.1016 42.4805 16.5938C42.457 15.3516 42.4102 14.3672 42.3398 13.6406C42.293 12.8906 42.2461 12.3164 42.1992 11.918C42.1055 11.4492 42.0234 11.1211 41.9531 10.9336C41.8359 10.7695 41.707 10.582 41.5664 10.3711C41.4492 10.1602 41.2969 9.97266 41.1094 9.80859C40.9219 9.62109 40.6875 9.46875 40.4062 9.35156C40.125 9.23438 39.7969 9.1875 39.4219 9.21094C39.0234 9.23438 38.707 9.33984 38.4727 9.52734C38.2383 9.71484 38.0508 9.9375 37.9102 10.1953C37.793 10.4297 37.7227 10.6875 37.6992 10.9688C37.6758 11.25 37.6875 11.4961 37.7344 11.707C37.7812 11.8477 37.8516 12 37.9453 12.1641C38.0391 12.3047 38.168 12.457 38.332 12.6211C38.4961 12.7852 38.7188 12.9258 39 13.043C38.4609 13.1133 37.9805 13.1719 37.5586 13.2188C37.1367 13.2422 36.7734 13.2773 36.4688 13.3242C36.1172 13.3711 35.8125 13.4062 35.5547 13.4297C35.2969 13.4531 34.9922 13.5 34.6406 13.5703C34.3359 13.6172 33.9609 13.6758 33.5156 13.7461C33.0703 13.8164 32.5547 13.9102 31.9688 14.0273C32.1094 13.8633 32.2383 13.7109 32.3555 13.5703C32.4727 13.4062 32.5781 13.2656 32.6719 13.1484C32.7656 13.0078 32.8594 12.8789 32.9531 12.7617ZM38.2266 16.9453C37.8047 16.9688 37.3828 17.0742 36.9609 17.2617C36.5391 17.4258 36.1641 17.6719 35.8359 18C35.5078 18.3047 35.2266 18.668 34.9922 19.0898C34.7812 19.4883 34.6758 19.9336 34.6758 20.4258C34.6758 20.918 34.793 21.3516 35.0273 21.7266C35.2852 22.0781 35.6133 22.3711 36.0117 22.6055C36.4336 22.8398 36.8789 22.9805 37.3477 23.0273C37.8398 23.0742 38.3203 23.0273 38.7891 22.8867C39.2344 22.7227 39.6562 22.4648 40.0547 22.1133C40.4531 21.7383 40.793 21.3398 41.0742 20.918C41.3555 20.4727 41.5547 20.0391 41.6719 19.6172C41.7891 19.1719 41.8008 18.8086 41.707 18.5273C41.5195 17.918 41.0977 17.4961 40.4414 17.2617C39.7852 17.0039 39.0469 16.8984 38.2266 16.9453ZM49.3008 10.1602C49.7461 10.1836 50.1445 10.1953 50.4961 10.1953C50.8711 10.1719 51.1875 10.1484 51.4453 10.125C51.75 10.1016 52.0195 10.0781 52.2539 10.0547C52.6055 10.0078 52.9688 9.94922 53.3438 9.87891C53.6719 9.83203 54.0117 9.77344 54.3633 9.70312C54.7383 9.60938 55.1016 9.50391 55.4531 9.38672C55.3125 9.73828 55.1953 10.043 55.1016 10.3008C55.0078 10.5586 54.9375 10.7812 54.8906 10.9688C54.8203 11.1797 54.7852 11.3555 54.7852 11.4961C54.7617 11.6602 54.75 11.8594 54.75 12.0938C54.7266 12.4922 54.7266 13.1367 54.75 14.0273C55.9688 12.9727 56.9883 12.1523 57.8086 11.5664C58.6523 10.9805 59.3203 10.5234 59.8125 10.1953C60.3984 9.82031 60.8555 9.57422 61.1836 9.45703C62.0508 9.31641 62.8125 9.51562 63.4688 10.0547C63.75 10.2891 64.0195 10.6055 64.2773 11.0039C64.5352 11.3789 64.7578 11.8828 64.9453 12.5156C65.1328 13.1484 65.2734 13.9102 65.3672 14.8008C65.4609 15.668 65.4727 16.7109 65.4023 17.9297C64.9102 17.9766 64.4648 18.0234 64.0664 18.0703C63.6914 18.1172 63.375 18.1523 63.1172 18.1758C62.8125 18.2227 62.5312 18.2461 62.2734 18.2461L61.3242 18.3516C60.9961 18.3984 60.5859 18.4453 60.0938 18.4922C59.625 18.5156 59.0508 18.5625 58.3711 18.6328C59.3555 17.8359 59.9883 17.1445 60.2695 16.5586C60.5742 15.9492 60.7031 15.4453 60.6562 15.0469C60.6094 14.6016 60.3984 14.2148 60.0234 13.8867C59.5781 13.6289 59.0977 13.5352 58.582 13.6055C58.1367 13.6523 57.6211 13.8516 57.0352 14.2031C56.4492 14.5547 55.8281 15.2109 55.1719 16.1719C55.2188 17.6719 55.2656 18.9141 55.3125 19.8984C55.3828 20.8828 55.4414 21.6797 55.4883 22.2891C55.5586 22.9922 55.6172 23.543 55.6641 23.9414C55.7344 24.293 55.875 24.668 56.0859 25.0664C56.25 25.3945 56.4844 25.7578 56.7891 26.1562C57.0938 26.5547 57.4922 26.9531 57.9844 27.3516C56.9531 27.3047 56.1094 27.3047 55.4531 27.3516C55.0547 27.375 54.7031 27.3984 54.3984 27.4219C54.0703 27.4688 53.7188 27.5156 53.3438 27.5625C53.0156 27.6094 52.6289 27.6562 52.1836 27.7031C51.7617 27.7734 51.293 27.8438 50.7773 27.9141C50.9648 27.6562 51.1172 27.3516 51.2344 27C51.3516 26.6719 51.4453 26.3555 51.5156 26.0508C51.6094 25.6992 51.6797 25.3359 51.7266 24.9609C51.75 24.6328 51.7617 24.1406 51.7617 23.4844C51.7852 22.8281 51.7734 22.0898 51.7266 21.2695C51.7031 20.4258 51.668 19.5586 51.6211 18.668C51.5742 17.7539 51.5156 16.8984 51.4453 16.1016C51.375 15.3047 51.293 14.6133 51.1992 14.0273C51.1289 13.418 51.0469 12.9961 50.9531 12.7617C50.8359 12.4805 50.6953 12.1992 50.5312 11.918C50.3906 11.6602 50.2148 11.3906 50.0039 11.1094C49.793 10.8047 49.5586 10.4883 49.3008 10.1602ZM67.0547 10.8281C67.6641 10.9453 68.1914 11.0391 68.6367 11.1094C69.1055 11.1562 69.5039 11.2031 69.832 11.25C70.207 11.2969 70.5352 11.332 70.8164 11.3555C71.0977 11.3789 71.4258 11.4023 71.8008 11.4258C72.4336 11.4492 73.3242 11.4492 74.4727 11.4258C73.793 11.3789 73.2539 11.5547 72.8555 11.9531C72.4805 12.3281 72.1992 12.7617 72.0117 13.2539C71.7773 13.8398 71.6484 14.5195 71.625 15.293C71.5781 16.3242 71.6016 17.2617 71.6953 18.1055C71.8125 18.9258 72.0117 19.6289 72.293 20.2148C72.5977 20.7773 72.9961 21.1992 73.4883 21.4805C73.9805 21.7383 74.6133 21.8086 75.3867 21.6914C76.1602 21.5742 76.7461 21.3047 77.1445 20.8828C77.5664 20.4375 77.8711 19.8984 78.0586 19.2656C78.2461 18.6094 78.3516 17.8711 78.375 17.0508C78.4219 16.2305 78.457 15.375 78.4805 14.4844C78.4805 13.5938 78.4688 12.9609 78.4453 12.5859C78.4453 12.1875 78.4336 11.9297 78.4102 11.8125C78.3867 11.6953 78.3516 11.6484 78.3047 11.6719C78.2578 11.6719 78.1992 11.6133 78.1289 11.4961C78.082 11.4023 78.0117 11.3086 77.918 11.2148C77.8477 11.1211 77.7539 11.0156 77.6367 10.8984C77.5195 10.7578 77.3906 10.6172 77.25 10.4766C77.8594 10.5 78.3984 10.5234 78.8672 10.5469C79.3594 10.5469 79.7695 10.5586 80.0977 10.582C80.4727 10.6055 80.8008 10.6289 81.082 10.6523C81.3398 10.6758 81.6797 10.7109 82.1016 10.7578C82.4531 10.8047 82.9102 10.8516 83.4727 10.8984C84.0352 10.9453 84.7031 11.0156 85.4766 11.1094C84.9375 11.2266 84.5039 11.4023 84.1758 11.6367C83.8477 11.8711 83.5898 12.1055 83.4023 12.3398C83.1914 12.5977 83.0391 12.8789 82.9453 13.1836C82.875 13.582 82.875 14.1914 82.9453 15.0117C82.9922 15.7383 83.1094 16.7344 83.2969 18C83.4844 19.2656 83.7773 20.9297 84.1758 22.9922L81.3984 24.6445L80.8359 19.9688C80.1562 21.1172 79.4297 22.0078 78.6562 22.6406C77.9062 23.25 77.2031 23.6953 76.5469 23.9766C75.7734 24.3047 75.0234 24.4922 74.2969 24.5391C73.3359 24.5391 72.5039 24.4805 71.8008 24.3633C71.1211 24.2227 70.5352 24.0469 70.043 23.8359C69.5508 23.625 69.1523 23.3906 68.8477 23.1328C68.5664 22.8516 68.3555 22.5703 68.2148 22.2891C67.8867 21.7031 67.7109 20.9531 67.6875 20.0391C67.6641 19.1016 67.6992 18.1758 67.793 17.2617C67.8867 16.3242 67.9922 15.4688 68.1094 14.6953C68.2266 13.9219 68.2617 13.3945 68.2148 13.1133C68.168 12.9023 68.0977 12.668 68.0039 12.4102C67.9102 12.1992 67.793 11.9648 67.6523 11.707C67.5117 11.4258 67.3125 11.1328 67.0547 10.8281ZM87.0938 23.1328C87.2578 22.3594 87.375 21.6797 87.4453 21.0938C87.5391 20.4844 87.6094 19.9805 87.6562 19.582C87.7031 19.1133 87.7266 18.7148 87.7266 18.3867C87.7031 17.9883 87.6797 17.5195 87.6562 16.9805C87.6562 16.418 87.6328 15.8672 87.5859 15.3281C87.5625 14.7656 87.5273 14.2734 87.4805 13.8516C87.4336 13.4062 87.375 13.0898 87.3047 12.9023C87.2109 12.7148 87.082 12.5156 86.918 12.3047C86.5898 11.9062 86.1094 11.5195 85.4766 11.1445C86.0156 11.0273 86.4727 10.9336 86.8477 10.8633C87.2461 10.7695 87.5742 10.6875 87.832 10.6172C88.1133 10.5234 88.3594 10.4414 88.5703 10.3711C88.7578 10.3008 88.9805 10.2305 89.2383 10.1602C89.4492 10.1133 89.707 10.0547 90.0117 9.98438C90.3164 9.91406 90.668 9.83203 91.0664 9.73828L90.9609 12.9375C91.7109 12.0469 92.4727 11.3789 93.2461 10.9336C94.0195 10.4883 94.7461 10.1719 95.4258 9.98438C96.1992 9.75 96.9609 9.63281 97.7109 9.63281C98.6484 9.67969 99.5156 9.83203 100.312 10.0898C101.133 10.3477 101.836 10.6523 102.422 11.0039C103.031 11.332 103.523 11.6836 103.898 12.0586C104.273 12.4336 104.496 12.7617 104.566 13.043C104.848 13.957 104.918 14.8008 104.777 15.5742C104.637 16.3242 104.449 17.0625 104.215 17.7891C104.004 18.4922 103.816 19.1953 103.652 19.8984C103.512 20.6016 103.57 21.3633 103.828 22.1836C103.922 22.3945 104.016 22.6055 104.109 22.8164C104.203 23.0039 104.32 23.1914 104.461 23.3789C104.602 23.5664 104.766 23.7188 104.953 23.8359C104.695 23.8125 104.438 23.8008 104.18 23.8008C103.922 23.7773 103.688 23.7539 103.477 23.7305C103.219 23.707 102.984 23.6836 102.773 23.6602C102.539 23.6367 102.223 23.625 101.824 23.625C101.145 23.625 100.09 23.6602 98.6602 23.7305C98.8711 23.2383 99.0352 22.8281 99.1523 22.5C99.293 22.1484 99.4102 21.8672 99.5039 21.6562C99.5977 21.3984 99.668 21.1992 99.7148 21.0586C99.9961 20.3789 100.16 19.6055 100.207 18.7383C100.277 17.8711 100.219 16.9922 100.031 16.1016C99.9609 15.7969 99.8438 15.4336 99.6797 15.0117C99.5156 14.5898 99.293 14.1797 99.0117 13.7812C98.7539 13.3828 98.4375 13.043 98.0625 12.7617C97.7109 12.4805 97.3008 12.3164 96.832 12.2695C96.3633 12.2227 95.8359 12.3398 95.25 12.6211C94.6875 12.9023 94.0781 13.418 93.4219 14.168C92.9297 14.8008 92.543 15.5742 92.2617 16.4883C92.0039 17.2617 91.8281 18.2344 91.7344 19.4062C91.6406 20.5547 91.7812 21.9023 92.1562 23.4492C91.8281 23.4023 91.5234 23.3789 91.2422 23.3789C90.9609 23.3555 90.7266 23.332 90.5391 23.3086C90.3047 23.2852 90.0938 23.2617 89.9062 23.2383C89.6953 23.2383 89.4609 23.2266 89.2031 23.2031C88.9688 23.2031 88.6758 23.2031 88.3242 23.2031C87.9727 23.1797 87.5625 23.1562 87.0938 23.1328ZM123.691 12.0938C123.621 11.625 123.562 11.2383 123.516 10.9336C123.469 10.6055 123.422 10.3477 123.375 10.1602C123.328 9.92578 123.293 9.75 123.27 9.63281C123.223 9.51562 123.164 9.38672 123.094 9.24609C123.047 9.12891 122.965 8.98828 122.848 8.82422C122.754 8.66016 122.637 8.47266 122.496 8.26172C122.801 8.35547 123.105 8.41406 123.41 8.4375C123.738 8.46094 124.043 8.48438 124.324 8.50781C124.629 8.53125 124.945 8.53125 125.273 8.50781C125.602 8.50781 125.977 8.49609 126.398 8.47266C126.773 8.44922 127.219 8.4375 127.734 8.4375C128.273 8.41406 128.883 8.37891 129.562 8.33203C129.164 8.42578 128.824 8.58984 128.543 8.82422C128.285 9.03516 128.062 9.26953 127.875 9.52734C127.664 9.80859 127.488 10.1133 127.348 10.4414C127.23 10.7461 127.16 11.332 127.137 12.1992C127.113 13.043 127.113 14.0508 127.137 15.2227C127.16 16.3711 127.184 17.6133 127.207 18.9492C127.254 20.2852 127.277 21.5625 127.277 22.7812C127.301 24 127.301 25.1133 127.277 26.1211C127.254 27.1055 127.195 27.832 127.102 28.3008C126.773 29.7773 126.164 30.9727 125.273 31.8867C124.383 32.8242 123.211 33.3281 121.758 33.3984C120 33.4688 118.605 33.3047 117.574 32.9062C116.566 32.5078 115.781 32.0156 115.219 31.4297C114.656 30.8672 114.234 30.293 113.953 29.707C113.672 29.1211 113.379 28.6758 113.074 28.3711C112.793 28.1133 112.512 27.8672 112.23 27.6328C111.973 27.4453 111.703 27.2578 111.422 27.0703C111.164 26.8828 110.906 26.7656 110.648 26.7188C111.328 26.7422 111.938 26.7539 112.477 26.7539C113.016 26.7539 113.473 26.7539 113.848 26.7539C114.27 26.7539 114.645 26.7422 114.973 26.7188H116.098H119.297C118.828 26.8594 118.477 27.0117 118.242 27.1758C118.008 27.3633 117.844 27.5508 117.75 27.7383C117.656 27.9492 117.609 28.1602 117.609 28.3711C117.703 28.9336 118.008 29.3438 118.523 29.6016C119.039 29.8594 119.742 30.0117 120.633 30.0586C121.5 30.1055 122.098 30.082 122.426 29.9883C122.754 29.918 123.012 29.7773 123.199 29.5664C123.574 29.0039 123.891 28.2773 124.148 27.3867C124.336 26.6367 124.465 25.6641 124.535 24.4688C124.629 23.25 124.523 21.7617 124.219 20.0039C123.469 21.0352 122.602 21.8086 121.617 22.3242C120.633 22.8398 119.695 23.2148 118.805 23.4492C117.75 23.707 116.684 23.8359 115.605 23.8359C112.77 23.7188 110.648 23.0625 109.242 21.8672C107.836 20.6719 107.191 19.0664 107.309 17.0508C107.379 16.043 107.684 15.0352 108.223 14.0273C108.785 13.0195 109.512 12.1172 110.402 11.3203C111.316 10.5234 112.359 9.89062 113.531 9.42188C114.703 8.95312 115.922 8.75391 117.188 8.82422C118.148 8.91797 119.051 9.09375 119.895 9.35156C120.621 9.58594 121.336 9.91406 122.039 10.3359C122.766 10.7578 123.316 11.3438 123.691 12.0938ZM112.512 15.6094C112.371 16.5234 112.43 17.3789 112.688 18.1758C112.969 18.9727 113.355 19.6641 113.848 20.25C114.34 20.8125 114.891 21.2578 115.5 21.5859C116.109 21.8906 116.684 22.0312 117.223 22.0078C118.348 21.9844 119.32 21.4805 120.141 20.4961C120.961 19.4883 121.453 17.9883 121.617 15.9961C121.688 15.0117 121.559 14.168 121.23 13.4648C120.926 12.7383 120.539 12.1523 120.07 11.707C119.602 11.2617 119.109 10.9453 118.594 10.7578C118.078 10.5703 117.668 10.4883 117.363 10.5117C116.941 10.5586 116.473 10.6875 115.957 10.8984C115.465 11.0859 114.984 11.3789 114.516 11.7773C114.047 12.1523 113.625 12.6562 113.25 13.2891C112.898 13.9219 112.652 14.6953 112.512 15.6094ZM140.355 1.86328C141.105 2.05078 141.82 2.19141 142.5 2.28516C143.18 2.37891 143.777 2.44922 144.293 2.49609C144.902 2.56641 145.465 2.58984 145.98 2.56641C146.637 2.56641 147.457 2.50781 148.441 2.39062C149.449 2.27344 150.48 2.16797 151.535 2.07422C152.59 1.95703 153.598 1.88672 154.559 1.86328C155.543 1.81641 156.34 1.875 156.949 2.03906C157.559 2.17969 158.18 2.40234 158.812 2.70703C159.469 2.98828 160.066 3.35156 160.605 3.79688C161.145 4.21875 161.59 4.72266 161.941 5.30859C162.293 5.87109 162.492 6.51563 162.539 7.24219C162.516 8.15625 162.305 9.01172 161.906 9.80859C161.578 10.4883 161.027 11.1914 160.254 11.918C159.48 12.6211 158.367 13.1602 156.914 13.5352C157.641 13.6289 158.262 13.793 158.777 14.0273C159.316 14.2383 159.773 14.4961 160.148 14.8008C160.547 15.082 160.863 15.3984 161.098 15.75C161.355 16.1016 161.555 16.4531 161.695 16.8047C162.047 17.625 162.211 18.5391 162.188 19.5469C162.047 20.8594 161.777 21.9023 161.379 22.6758C161.004 23.4492 160.57 24.0469 160.078 24.4688C159.586 24.8906 159.082 25.1836 158.566 25.3477C158.051 25.5117 157.582 25.6406 157.16 25.7344C156.738 25.8281 156.223 25.875 155.613 25.875C155.004 25.875 154.348 25.8633 153.645 25.8398C152.965 25.793 152.262 25.7578 151.535 25.7344C150.809 25.6875 150.117 25.6875 149.461 25.7344C148.922 25.7812 148.266 25.8281 147.492 25.875C146.836 25.9219 146.016 25.9805 145.031 26.0508C144.047 26.0977 142.898 26.1562 141.586 26.2266C141.844 26.0391 142.055 25.8281 142.219 25.5938C142.406 25.3359 142.559 25.1133 142.676 24.9258C142.793 24.6914 142.898 24.4688 142.992 24.2578C143.062 24.0703 143.121 23.5547 143.168 22.7109C143.215 21.8672 143.25 20.8594 143.273 19.6875C143.297 18.4922 143.309 17.2148 143.309 15.8555C143.332 14.4727 143.32 13.1484 143.273 11.8828C143.25 10.5938 143.203 9.45703 143.133 8.47266C143.086 7.46484 143.016 6.73828 142.922 6.29297C142.781 5.80078 142.594 5.29687 142.359 4.78125C142.172 4.33594 141.902 3.85547 141.551 3.33984C141.223 2.82422 140.824 2.33203 140.355 1.86328ZM147.773 5.44922C147.773 5.54297 147.785 5.85937 147.809 6.39844C147.832 6.86719 147.855 7.59375 147.879 8.57812C147.926 9.53906 147.984 10.9102 148.055 12.6914C148.641 12.9492 149.215 13.0898 149.777 13.1133C150.34 13.1133 150.844 13.0898 151.289 13.043C151.805 12.9727 152.297 12.8555 152.766 12.6914C153.398 12.4336 153.891 12.0117 154.242 11.4258C154.617 10.8398 154.863 10.2305 154.98 9.59766C155.121 8.94141 155.156 8.33203 155.086 7.76953C155.016 7.18359 154.863 6.76172 154.629 6.50391C154.184 6.10547 153.633 5.77734 152.977 5.51953C152.414 5.30859 151.699 5.16797 150.832 5.09766C149.988 5.00391 148.969 5.12109 147.773 5.44922ZM147.598 22.1133C148.465 22.5586 149.227 22.8516 149.883 22.9922C150.539 23.1328 151.09 23.2031 151.535 23.2031C152.051 23.2031 152.496 23.1328 152.871 22.9922C153.316 22.7812 153.75 22.5 154.172 22.1484C154.617 21.7734 154.945 21.3398 155.156 20.8477C155.391 20.332 155.484 19.7695 155.438 19.1602C155.391 18.5273 155.121 17.8359 154.629 17.0859C154.184 16.5469 153.645 16.125 153.012 15.8203C152.449 15.5625 151.734 15.3984 150.867 15.3281C150.023 15.2578 148.98 15.457 147.738 15.9258L147.598 22.1133ZM162.891 1.93359C163.711 2.05078 164.426 2.14453 165.035 2.21484C165.645 2.28516 166.148 2.34375 166.547 2.39062C167.016 2.4375 167.414 2.47266 167.742 2.49609C168.117 2.54297 168.574 2.51953 169.113 2.42578C169.676 2.33203 170.273 2.23828 170.906 2.14453C171.539 2.02734 172.195 1.93359 172.875 1.86328C173.555 1.79297 174.211 1.79297 174.844 1.86328C175.266 1.91016 175.805 2.00391 176.461 2.14453C177.117 2.28516 177.809 2.50781 178.535 2.8125C179.285 3.11719 180.035 3.51562 180.785 4.00781C181.535 4.5 182.215 5.12109 182.824 5.87109C183.434 6.62109 183.938 7.51172 184.336 8.54297C184.734 9.57422 184.957 10.7812 185.004 12.1641C185.074 14.2266 184.887 16.1016 184.441 17.7891C183.996 19.4766 183.305 20.918 182.367 22.1133C181.453 23.3086 180.293 24.2461 178.887 24.9258C177.48 25.6055 175.84 25.9805 173.965 26.0508C172.535 26.168 171.129 26.2734 169.746 26.3672C169.16 26.4141 168.539 26.4492 167.883 26.4727C167.25 26.4961 166.617 26.5195 165.984 26.543C165.352 26.543 164.742 26.5312 164.156 26.5078C163.57 26.4844 163.031 26.4492 162.539 26.4023C163.078 26.1445 163.512 25.8867 163.84 25.6289C164.191 25.3711 164.461 25.1484 164.648 24.9609C164.859 24.7266 165.012 24.5156 165.105 24.3281C165.152 24.0703 165.223 23.5664 165.316 22.8164C165.387 22.1836 165.48 21.2812 165.598 20.1094C165.715 18.9375 165.855 17.3438 166.02 15.3281L166.23 12.832C166.348 11.2852 166.395 10.0195 166.371 9.03516C166.371 8.05078 166.348 7.27734 166.301 6.71484C166.23 6.05859 166.137 5.57812 166.02 5.27344C165.926 5.01562 165.75 4.71094 165.492 4.35938C165.258 4.07812 164.93 3.73828 164.508 3.33984C164.109 2.91797 163.57 2.44922 162.891 1.93359ZM170.309 14.8711C170.355 16.957 170.461 18.5625 170.625 19.6875C170.812 20.7891 171.012 21.6094 171.223 22.1484C171.48 22.7578 171.762 23.1211 172.066 23.2383C172.512 23.2383 173.016 23.0508 173.578 22.6758C174.141 22.2773 174.691 21.6797 175.23 20.8828C175.793 20.0859 176.297 19.0898 176.742 17.8945C177.211 16.6992 177.551 15.3047 177.762 13.7109C177.973 12.1172 177.914 10.7109 177.586 9.49219C177.258 8.27344 176.824 7.25391 176.285 6.43359C175.746 5.58984 175.195 4.95703 174.633 4.53516C174.07 4.08984 173.648 3.86719 173.367 3.86719C173.039 3.86719 172.746 3.96094 172.488 4.14844C172.23 4.3125 171.867 4.69922 171.398 5.30859C171.164 5.63672 170.953 6.10547 170.766 6.71484C170.602 7.25391 170.461 7.96875 170.344 8.85938C170.227 9.75 170.191 10.8984 170.238 12.3047L170.309 14.8711ZM184.828 1.33594C185.578 1.45313 186.258 1.55859 186.867 1.65234C187.477 1.72266 188.004 1.78125 188.449 1.82812C188.965 1.89844 189.422 1.95703 189.82 2.00391C190.312 2.07422 191.051 1.99219 192.035 1.75781C193.02 1.5 194.098 1.26562 195.27 1.05469C196.465 0.820313 197.684 0.691406 198.926 0.667969C200.168 0.621094 201.305 0.84375 202.336 1.33594C203.367 1.82812 204.211 2.32031 204.867 2.8125C205.523 3.30469 206.039 3.83203 206.414 4.39453C206.812 4.93359 207.094 5.50781 207.258 6.11719C207.422 6.72656 207.516 7.39453 207.539 8.12109C207.516 9.19922 207.258 10.2422 206.766 11.25C206.555 11.6719 206.273 12.1172 205.922 12.5859C205.594 13.0312 205.184 13.4648 204.691 13.8867C204.199 14.3086 203.613 14.707 202.934 15.082C202.277 15.457 201.504 15.7852 200.613 16.0664C201.48 16.3242 202.195 16.6289 202.758 16.9805C203.344 17.332 203.812 17.6602 204.164 17.9648C204.586 18.3398 204.902 18.7031 205.113 19.0547C205.371 19.5469 205.547 19.9688 205.641 20.3203C205.734 20.6719 205.793 21.0117 205.816 21.3398C205.863 21.6445 205.922 21.9609 205.992 22.2891C206.062 22.6172 206.215 22.9922 206.449 23.4141C206.637 23.7422 206.859 24.082 207.117 24.4336C207.352 24.7383 207.621 25.0664 207.926 25.418C208.254 25.7695 208.652 26.1094 209.121 26.4375C208.465 26.4609 207.855 26.4727 207.293 26.4727C206.754 26.4727 206.285 26.4727 205.887 26.4727C205.418 26.4727 204.973 26.4609 204.551 26.4375C204.129 26.4141 203.602 26.4023 202.969 26.4023C202.43 26.4023 201.738 26.4023 200.895 26.4023C200.074 26.4023 199.078 26.4141 197.906 26.4375C198.422 26.0391 198.844 25.6406 199.172 25.2422C199.5 24.8438 199.758 24.4805 199.945 24.1523C200.156 23.7773 200.309 23.4141 200.402 23.0625C200.52 22.4297 200.531 21.7734 200.438 21.0938C200.367 20.5078 200.18 19.8633 199.875 19.1602C199.57 18.4336 199.078 17.707 198.398 16.9805C197.719 17.0977 197.145 17.1914 196.676 17.2617C196.23 17.3086 195.844 17.3555 195.516 17.4023C195.141 17.4492 194.836 17.4844 194.602 17.5078C194.391 17.5312 194.156 17.5547 193.898 17.5781C193.688 17.6016 193.453 17.6367 193.195 17.6836C192.961 17.707 192.738 17.7422 192.527 17.7891C192.48 18.7969 192.48 19.6758 192.527 20.4258C192.574 21.1523 192.633 21.7617 192.703 22.2539C192.797 22.8398 192.902 23.3438 193.02 23.7656C193.137 24.1875 193.301 24.5977 193.512 24.9961C193.676 25.3242 193.887 25.6758 194.145 26.0508C194.402 26.4023 194.695 26.6953 195.023 26.9297C194.414 26.9297 193.828 26.9297 193.266 26.9297C192.727 26.9297 192.234 26.918 191.789 26.8945C191.273 26.8945 190.781 26.8828 190.312 26.8594C189.844 26.8359 189.316 26.8242 188.73 26.8242C188.238 26.8242 187.652 26.8242 186.973 26.8242C186.316 26.8242 185.602 26.8359 184.828 26.8594C185.438 26.2266 185.918 25.6875 186.27 25.2422C186.621 24.7969 186.891 24.4219 187.078 24.1172C187.289 23.7891 187.418 23.5078 187.465 23.2734C187.512 22.8984 187.547 22.2305 187.57 21.2695C187.617 20.2852 187.652 19.1602 187.676 17.8945C187.699 16.6289 187.711 15.3047 187.711 13.9219C187.711 12.5391 187.699 11.25 187.676 10.0547C187.652 8.83594 187.629 7.79297 187.605 6.92578C187.582 6.05859 187.559 5.50781 187.535 5.27344C187.465 4.85156 187.312 4.42969 187.078 4.00781C186.891 3.63281 186.621 3.21094 186.27 2.74219C185.918 2.27344 185.438 1.80469 184.828 1.33594ZM198.117 13.7109C198.352 13.5703 198.551 13.4297 198.715 13.2891C198.879 13.1484 199.02 12.9258 199.137 12.6211C199.254 12.293 199.348 11.8359 199.418 11.25C199.512 10.6641 199.617 9.86719 199.734 8.85938C199.828 7.85156 199.758 7.01953 199.523 6.36328C199.312 5.70703 199.02 5.19141 198.645 4.81641C198.293 4.41797 197.895 4.14844 197.449 4.00781C197.027 3.84375 196.652 3.76172 196.324 3.76172C195.668 3.76172 195.023 3.96094 194.391 4.35938C193.758 4.75781 193.277 5.29687 192.949 5.97656C192.832 6.28125 192.727 6.78516 192.633 7.48828C192.562 8.09766 192.516 8.94141 192.492 10.0195C192.469 11.0977 192.504 12.5156 192.598 14.2734C193.488 14.4141 194.273 14.4727 194.953 14.4492C195.633 14.4023 196.207 14.3203 196.676 14.2031C197.238 14.0859 197.719 13.9219 198.117 13.7109Z" fill="url(#paint0_linear_36_71)"/>
<defs>
<linearGradient id="paint0_linear_36_71" x1="3" y1="14" x2="209" y2="14" gradientUnits="userSpaceOnUse">
<stop stop-color="#4CE93A"/>
<stop offset="1" stop-color="#2B8321"/>
</linearGradient>
</defs>
</svg>
